<?xml version="1.0" encoding="utf-8"?>
<!-- Generator: Adobe Illustrator 25.2.2, SVG Export Plug-In . SVG Version: 6.00 Build 0)  -->
<svg version="1.1" id="Laag_1" xmlns="http://www.w3.org/2000/svg" xmlns:xlink="http://www.w3.org/1999/xlink" x="0px" y="0px"
	 width="244.938px" height="49.98px" viewBox="0 0 244.938 49.98" enable-background="new 0 0 244.938 49.98" xml:space="preserve">
<path fill="#E30613" d="M5.358,32.196c1.495-2.381,3.686-3.572,6.574-3.572c2.888,0,5.269,1.007,7.144,3.021
	c1.875,2.014,2.812,4.611,2.812,7.79c0,3.18-0.938,5.782-2.812,7.809c-1.875,2.027-4.237,3.04-7.087,3.04s-5.061-1.279-6.631-3.838
	v3.534H0V21.86h5.358V32.196z M14.801,43.976c1.102-1.115,1.653-2.635,1.653-4.56c0-1.925-0.551-3.433-1.653-4.522
	c-1.102-1.089-2.4-1.634-3.895-1.634c-1.495,0-2.793,0.551-3.895,1.653s-1.653,2.616-1.653,4.541s0.551,3.439,1.653,4.541
	s2.4,1.653,3.895,1.653C12.4,45.648,13.699,45.091,14.801,43.976z"/>
<path fill="#E30613" d="M25.999,47.282c-2.052-2-3.078-4.623-3.078-7.866c0-3.243,1.039-5.852,3.116-7.828
	c2.077-1.976,4.655-2.964,7.733-2.964s5.656,0.988,7.733,2.964s3.116,4.585,3.116,7.828c0,3.243-1.045,5.865-3.135,7.866
	c-2.091,2.002-4.681,3.002-7.771,3.002C30.622,50.284,28.051,49.283,25.999,47.282z M33.714,45.762c1.494,0,2.78-0.551,3.857-1.653
	c1.076-1.102,1.614-2.66,1.614-4.674s-0.531-3.565-1.596-4.655c-1.064-1.089-2.35-1.634-3.857-1.634s-2.78,0.545-3.819,1.634
	c-1.039,1.09-1.558,2.648-1.558,4.674c0,2.027,0.519,3.585,1.558,4.674C30.952,45.217,32.218,45.762,33.714,45.762z"/>
<path fill="#E30613" d="M49.046,47.282c-2.052-2-3.078-4.623-3.078-7.866c0-3.243,1.039-5.852,3.116-7.828s4.655-2.964,7.733-2.964
	s5.655,0.988,7.732,2.964c2.077,1.976,3.116,4.585,3.116,7.828c0,3.243-1.045,5.865-3.135,7.866
	c-2.09,2.002-4.681,3.002-7.771,3.002C53.669,50.284,51.099,49.283,49.046,47.282z M56.761,45.762c1.494,0,2.779-0.551,3.856-1.653
	c1.076-1.102,1.615-2.66,1.615-4.674s-0.532-3.565-1.596-4.655c-1.064-1.089-2.351-1.634-3.857-1.634
	c-1.508,0-2.78,0.545-3.819,1.634c-1.039,1.09-1.558,2.648-1.558,4.674c0,2.027,0.519,3.585,1.558,4.674
	C53.999,45.217,55.266,45.762,56.761,45.762z"/>
<path fill="#E30613" d="M68.72,35.084c0-1.824,0.772-3.356,2.318-4.598c1.545-1.241,3.597-1.862,6.155-1.862s4.61,0.614,6.156,1.843
	c1.545,1.229,2.368,2.895,2.47,4.997h-5.472c-0.152-1.773-1.241-2.66-3.268-2.66c-1.014,0-1.8,0.203-2.356,0.608
	c-0.558,0.405-0.836,0.963-0.836,1.672c0,0.709,0.418,1.267,1.254,1.672c0.836,0.406,1.849,0.722,3.04,0.95
	c1.19,0.228,2.375,0.513,3.553,0.855c1.179,0.342,2.186,0.95,3.021,1.824s1.254,2.033,1.254,3.477c0,1.9-0.805,3.446-2.413,4.636
	c-1.609,1.191-3.661,1.786-6.156,1.786s-4.541-0.589-6.137-1.767c-1.596-1.178-2.47-2.869-2.622-5.073h5.472
	c0.203,1.773,1.33,2.66,3.382,2.66c0.988,0,1.786-0.222,2.395-0.665c0.608-0.443,0.912-1.026,0.912-1.748s-0.418-1.292-1.254-1.71
	s-1.85-0.741-3.04-0.969c-1.191-0.228-2.375-0.507-3.554-0.836c-1.178-0.329-2.185-0.918-3.021-1.767S68.72,36.452,68.72,35.084z"/>
<path fill="#E30613" d="M95.946,45.496h2.546v4.484H95.11c-2.153,0-3.812-0.494-4.978-1.482c-1.166-0.988-1.748-2.622-1.748-4.902
	V33.298h-2.242v-4.37h2.242v-5.206h5.357v5.206h4.712v4.37h-4.712v10.298c0,0.684,0.165,1.172,0.494,1.463
	C94.565,45.35,95.136,45.496,95.946,45.496z"/>
<path fill="#FFFFFF" d="M102.479,47.32c-1.926-1.976-2.888-4.598-2.888-7.866s0.962-5.89,2.888-7.866
	c1.925-1.976,4.42-2.964,7.486-2.964c2.558,0,4.698,0.621,6.422,1.862c1.722,1.242,2.875,3.002,3.458,5.282h-5.776
	c-0.684-1.748-2.052-2.622-4.104-2.622c-1.546,0-2.756,0.564-3.63,1.691c-0.874,1.127-1.311,2.667-1.311,4.617
	c0,1.951,0.437,3.49,1.311,4.617c0.874,1.128,2.084,1.691,3.63,1.691c2.026,0,3.394-0.887,4.104-2.66h5.776
	c-0.608,2.204-1.78,3.952-3.516,5.244s-3.856,1.938-6.364,1.938C106.899,50.284,104.404,49.296,102.479,47.32z"/>
<path fill="#FFFFFF" d="M126.632,28.928v3.724c1.418-2.685,3.471-4.028,6.155-4.028v5.472h-1.329c-1.597,0-2.8,0.399-3.61,1.197
	c-0.812,0.798-1.216,2.172-1.216,4.123V49.98h-5.358V28.928H126.632z"/>
<path fill="#FFFFFF" d="M157.256,47.225c-1.888-2.039-2.831-4.642-2.831-7.809c0-3.167,0.938-5.757,2.812-7.771
	c1.874-2.014,4.256-3.021,7.144-3.021s5.092,1.191,6.612,3.572v-3.268h5.319V49.98h-5.319v-3.534
	c-1.597,2.559-3.813,3.838-6.65,3.838C161.505,50.284,159.143,49.264,157.256,47.225z M169.321,43.995
	c1.114-1.102,1.672-2.616,1.672-4.541s-0.558-3.439-1.672-4.541c-1.115-1.102-2.42-1.653-3.914-1.653
	c-1.495,0-2.793,0.545-3.896,1.634c-1.102,1.089-1.653,2.597-1.653,4.522c0,1.925,0.558,3.445,1.673,4.56
	c1.114,1.115,2.413,1.672,3.895,1.672C166.908,45.648,168.206,45.097,169.321,43.995z"/>
<path fill="#FFFFFF" d="M187.452,45.496h2.546v4.484h-3.382c-2.153,0-3.812-0.494-4.978-1.482c-1.166-0.988-1.748-2.622-1.748-4.902
	V33.298h-2.242v-4.37h2.242v-5.206h5.357v5.206h4.712v4.37h-4.712v10.298c0,0.684,0.165,1.172,0.494,1.463
	C186.072,45.35,186.642,45.496,187.452,45.496z"/>
<path fill="#FFFFFF" d="M194.111,47.282c-2.052-2-3.078-4.623-3.078-7.866c0-3.243,1.038-5.852,3.116-7.828
	c2.077-1.976,4.654-2.964,7.732-2.964s5.656,0.988,7.733,2.964s3.116,4.585,3.116,7.828c0,3.243-1.045,5.865-3.135,7.866
	c-2.091,2.002-4.681,3.002-7.771,3.002S196.163,49.283,194.111,47.282z M201.825,45.762c1.494,0,2.78-0.551,3.857-1.653
	c1.076-1.102,1.614-2.66,1.614-4.674s-0.531-3.565-1.596-4.655c-1.064-1.089-2.35-1.634-3.857-1.634
	c-1.507,0-2.78,0.545-3.818,1.634c-1.039,1.09-1.559,2.648-1.559,4.674c0,2.027,0.52,3.585,1.559,4.674
	C199.063,45.217,200.33,45.762,201.825,45.762z"/>
<path fill="#FFFFFF" d="M220.253,28.928v3.724c1.418-2.685,3.471-4.028,6.155-4.028v5.472h-1.329c-1.597,0-2.8,0.399-3.61,1.197
	c-0.812,0.798-1.216,2.172-1.216,4.123V49.98h-5.358V28.928H220.253z"/>
<path fill="#FFFFFF" d="M227.648,35.084c0-1.824,0.772-3.356,2.318-4.598c1.545-1.241,3.597-1.862,6.156-1.862
	c2.559,0,4.61,0.614,6.155,1.843c1.546,1.229,2.369,2.895,2.471,4.997h-5.473c-0.151-1.773-1.241-2.66-3.268-2.66
	c-1.014,0-1.799,0.203-2.356,0.608c-0.557,0.405-0.836,0.963-0.836,1.672c0,0.709,0.418,1.267,1.255,1.672
	c0.836,0.406,1.849,0.722,3.039,0.95c1.191,0.228,2.375,0.513,3.554,0.855c1.178,0.342,2.185,0.95,3.021,1.824
	s1.254,2.033,1.254,3.477c0,1.9-0.805,3.446-2.413,4.636c-1.608,1.191-3.661,1.786-6.155,1.786c-2.496,0-4.541-0.589-6.138-1.767
	c-1.596-1.178-2.47-2.869-2.622-5.073h5.473c0.202,1.773,1.33,2.66,3.382,2.66c0.988,0,1.786-0.222,2.394-0.665
	c0.608-0.443,0.912-1.026,0.912-1.748s-0.418-1.292-1.254-1.71s-1.85-0.741-3.04-0.969c-1.19-0.228-2.375-0.507-3.553-0.836
	c-1.178-0.329-2.185-0.918-3.021-1.767C228.066,37.56,227.648,36.452,227.648,35.084z"/>
<path fill="#FFFFFF" d="M148.732,30.175l-3.091,3.738c0.23,0.144,0.453,0.301,0.664,0.486c0.95,0.836,1.464,1.951,1.539,3.344
	h-9.956c0.178-1.393,0.716-2.508,1.615-3.344s2.021-1.254,3.363-1.254c0.264,0,0.515,0.029,0.763,0.062l3.244-3.923
	c-1.218-0.436-2.558-0.66-4.027-0.66c-3.077,0-5.586,0.982-7.523,2.945c-1.938,1.964-2.907,4.579-2.907,7.847
	s0.963,5.896,2.888,7.885c1.926,1.989,4.421,2.983,7.486,2.983c2.482,0,4.598-0.633,6.346-1.9c1.748-1.266,2.927-2.9,3.534-4.902
	h-5.775c-0.888,1.52-2.256,2.28-4.104,2.28c-1.368,0-2.495-0.418-3.382-1.254s-1.394-1.938-1.521-3.306h15.353
	c0.101-0.633,0.152-1.317,0.152-2.052c0-3.192-0.988-5.744-2.965-7.657C149.903,30.984,149.335,30.549,148.732,30.175z"/>
<polygon fill="#E30613" points="166.325,2.03 159.547,10.34 154.881,10.321 150.514,16.694 158.334,15.669 151.025,26.054 
	160.378,17.527 160.241,25.535 165.995,20.42 165.46,15.714 172.842,7.955 173.982,0 "/>
<g>
</g>
<g>
</g>
<g>
</g>
<g>
</g>
<g>
</g>
<g>
</g>
</svg>
